<svg id="Capa_1" data-name="Capa 1" xmlns="http://www.w3.org/2000/svg" viewBox="0 0 116 37.4"><title>logo_eWITweb_</title><g id="g1659"><g id="g3721"><g id="g58"><path id="path60" d="M99.19,4.8H92.86V42.2h6.33V20.32h5.62V13.9H99.19Z" transform="translate(0 -4.8)" style="fill:#fbfdfe"/></g><path id="path62" d="M80.07,42.2h6.24V13.9H80.07Z" transform="translate(0 -4.8)" style="fill:#fbfdfe"/><path id="path64" d="M86.26,4.8H80.12v6.55h6.14Z" transform="translate(0 -4.8)" style="fill:#fbfdfe"/><g id="g66"><path id="path68" d="M67.3,36H56.54V13.9H50.3V36H41a2.33,2.33,0,0,1-2.33-2.33V13.9H32.39V36.35a5.85,5.85,0,0,0,5.86,5.85H73.53V13.9H67.3Z" transform="translate(0 -4.8)" style="fill:#fbfdfe"/></g><path id="path70" d="M116,42.18h-6.33V35.86H116Z" transform="translate(0 -4.8)" style="fill:#46ae9e"/></g><path id="path154" d="M10.32,20.5a6.61,6.61,0,0,1,7.75.91L6.41,27.61a7,7,0,0,1,3.91-7.11m8.1,15c-3.56,1.89-7.66.87-10.24-2.8l19-10.11A13.61,13.61,0,0,0,26,20.38l-.31-.47a14.12,14.12,0,0,0-16.88-5l-.37.15A15.28,15.28,0,0,0,7,15.84c-.43.25-.84.53-1.23.81a14.13,14.13,0,1,0,22.33,13.5l-5.61,0a8,8,0,0,1-4.08,5.36" transform="translate(0 -4.8)" style="fill:#46ae9e"/></g></svg>