<svg id="Capa_1" data-name="Capa 1" xmlns="http://www.w3.org/2000/svg" xmlns:xlink="http://www.w3.org/1999/xlink" viewBox="0 0 100 100"><defs><linearGradient id="Degradado_sin_nombre_13" y1="50" x2="100" y2="50" gradientUnits="userSpaceOnUse"><stop offset="0.33" stop-color="#fdfefe"/><stop offset="0.46" stop-color="#262425"/></linearGradient></defs><title>mask</title><path d="M65.73,32.47c9.38-5,16.75-4.66,28.38-6.07-11,7.27-16,7.45-21.72,16.28C83,43,89.23,47,100,51.62c-13.16.8-17.54-1.52-26.95,3.24,9,5.61,12.41,12.17,19.44,21.55-11.79-5.88-14.42-10.09-25-10.67,5,9.37,4.66,16.74,6.06,28.38-7.27-11-7.44-16-16.27-21.72C57,83,53,89.23,48.38,100c-.81-13.15,1.52-17.53-3.24-26.95-5.6,9-12.17,12.41-21.55,19.44,5.89-11.79,10.09-14.43,10.68-25-9.38,5-16.75,4.66-28.38,6.07,11-7.27,16-7.45,21.72-16.28C17,57,10.77,53,0,48.38c13.16-.8,17.54,1.52,27-3.24C17.91,39.53,14.54,33,7.51,23.59c11.79,5.89,14.42,10.09,25,10.67-5-9.37-4.66-16.74-6.06-28.38,7.27,11,7.44,16,16.27,21.72C43,17,47,10.78,51.62,0c.81,13.15-1.52,17.53,3.24,27,5.6-9,12.17-12.41,21.55-19.44C70.52,19.3,66.32,21.94,65.73,32.47Z" transform="translate(0 0)" style="fill-rule:evenodd;fill:url(#Degradado_sin_nombre_13)"/></svg>